PathFileType  4	(X/Y/Z) C:\Users\antoi\Documents\MyRepositories\mobilecap\ResultsAnalysis
DataRate	CameraRate	NumFrames	NumMarkers	Units	OrigDataRate	OrigDataStartFrame	OrigNumFrames
100.0	100.0	4	51	mm	100.0	89	142
Frame#	Time	r_knee			r_shank_antsup			r_ankle			r_calc			r_5meta			r_toe			L_knee			L_shank_antsup			L_ankle			L_calc			L_5meta			L_toe			r_sh2			r_sh3			r_sh4			L_sh2			L_sh3			r_thigh1			r_thigh2			r_thigh3			r_thigh4			r_thigh5			L_thigh1			L_thigh2			L_thigh3			L_thigh4			r.ASIS			r.PSIS			L.ASIS			L.PSIS			C7			R_Shoulder			L_Shoulder			R_Sternum			L_Sternum			R_humerus			R_elbow_med			R_elbow_lat			R_forearm			R_wrist_radius			R_wrist_ulna			L_humerus			L_elbow_med			L_elbow_lat			L_forearm			L_wrist_radius			L_wrist_ulna			R_HJC			L_HJC			R_HJC_reg			L_HJC_reg			
		X1	Y1	Z1	X2	Y2	Z2	X3	Y3	Z3	X4	Y4	Z4	X5	Y5	Z5	X6	Y6	Z6	X7	Y7	Z7	X8	Y8	Z8	X9	Y9	Z9	X10	Y10	Z10	X11	Y11	Z11	X12	Y12	Z12	X13	Y13	Z13	X14	Y14	Z14	X15	Y15	Z15	X16	Y16	Z16	X17	Y17	Z17	X18	Y18	Z18	X19	Y19	Z19	X20	Y20	Z20	X21	Y21	Z21	X22	Y22	Z22	X23	Y23	Z23	X24	Y24	Z24	X25	Y25	Z25	X26	Y26	Z26	X27	Y27	Z27	X28	Y28	Z28	X29	Y29	Z29	X30	Y30	Z30	X31	Y31	Z31	X32	Y32	Z32	X33	Y33	Z33	X34	Y34	Z34	X35	Y35	Z35	X36	Y36	Z36	X37	Y37	Z37	X38	Y38	Z38	X39	Y39	Z39	X40	Y40	Z40	X41	Y41	Z41	X42	Y42	Z42	X43	Y43	Z43	X44	Y44	Z44	X45	Y45	Z45	X46	Y46	Z46	X47	Y47	Z47	X48	Y48	Z48	X49	Y49	Z49	X50	Y50	Z50	X51	Y51	Z51	

89	0.88000000	1008.03286	491.97159	-112.45571	975.51523	429.90162	-87.35536	758.53631	217.34309	-138.36734	690.50613	230.44055	-189.71132	797.93057	111.42711	-103.22111	853.80443	100.83227	-148.88257	882.44317	466.02508	-433.41873	908.50597	403.22140	-438.41788	871.09010	90.28923	-413.02470	800.53865	60.93135	-365.30454	964.52305	39.01030	-430.04539	1013.58120	66.49089	-376.45714	898.22762	346.60561	-88.95429	922.93518	478.31623	-111.88624	839.32023	396.36985	-119.73707	817.70896	413.15461	-444.99955	817.37271	291.98171	-448.12371	971.18743	801.99263	-153.30911	1022.33081	703.58059	-127.92481	980.32173	668.97125	-86.33313	878.36606	771.44523	-97.08107	921.71627	662.85140	-91.85152	944.32232	754.12000	-463.17786	949.29827	613.86490	-453.07105	829.56207	747.50667	-474.57147	842.05809	605.62916	-457.68572	937.27210	925.89282	-169.54459	760.23182	939.32273	-248.66812	953.88457	914.69530	-424.29373	762.73495	936.10575	-355.57423	870.97793	1395.35544	-387.67944	911.54946	1376.81150	-221.29407	934.06290	1292.29365	-524.91575	972.39420	1306.42314	-340.63007	973.99465	1294.18729	-382.56125	882.54932	1167.70136	-84.17555	815.72132	1064.49218	-106.99167	850.06990	1092.87836	-47.81795	913.60743	984.59560	-41.26721	948.40245	870.73193	-38.61481	916.05436	862.69558	-9.11411	971.65708	1159.70420	-546.88133	921.05894	947.65854	-501.48349	947.58424	954.01233	-557.75293	1016.66593	867.78202	-554.38211	1052.30869	748.58316	-531.56446	1021.08918	732.75224	-546.50292	874.62747	849.01655	-195.68472	887.20964	844.40116	-395.52150	881.66137	840.59835	-204.32138	885.60754	835.52593	-372.85600	
90	0.89000000	1023.87721	495.05390	-113.97580	993.17378	431.75278	-88.68886	786.73754	208.75525	-140.03779	718.48064	217.95752	-192.22107	831.02463	105.24431	-103.64998	887.80241	97.16802	-148.66484	885.07221	466.33944	-433.50631	910.39297	403.48439	-438.70701	871.43546	90.86893	-413.00667	800.82000	61.41270	-365.35157	964.63495	38.89575	-430.12897	1013.80400	66.12719	-376.58130	919.91785	344.95096	-90.25852	938.38032	477.75334	-113.43621	858.97924	391.58221	-121.69364	819.80912	414.12688	-444.58246	818.63286	293.02772	-447.66188	982.59797	804.34334	-154.64462	1035.40486	706.82780	-129.41348	994.16757	671.91780	-87.21698	890.84605	773.09448	-97.61701	935.73428	665.08657	-92.16025	951.92807	753.40509	-465.49584	954.45759	613.06931	-454.99482	836.71677	748.75858	-474.94114	846.80365	606.76976	-457.39436	948.65175	927.02379	-171.52778	771.00266	940.11284	-249.69754	963.84828	914.71290	-426.48196	773.15474	936.56910	-356.57468	881.45073	1396.48363	-387.76491	920.45244	1376.82455	-221.17634	945.98711	1295.00198	-525.31367	982.66241	1307.61896	-340.57794	984.66664	1295.73356	-382.62431	889.63081	1167.48791	-84.86270	823.61345	1064.15194	-109.13246	856.51635	1092.55889	-49.20897	920.37089	984.64143	-41.17138	955.81461	870.97069	-38.02366	922.58383	862.57715	-9.69349	984.16822	1162.61195	-548.00136	933.78575	950.12263	-503.90614	960.65995	956.64350	-559.86361	1031.07371	871.31717	-555.37310	1068.81638	752.86686	-531.30863	1037.97007	736.46388	-546.48303	885.82577	850.03543	-197.02865	897.26832	844.59835	-396.91458	892.68369	841.36210	-205.89517	896.07912	835.76954	-374.53588	
91	0.90000000	1038.99836	497.72308	-115.36903	1010.16986	433.33181	-89.86829	815.35678	199.90287	-141.66162	747.29173	205.04779	-194.83733	864.44165	99.10484	-103.83944	922.06667	93.63883	-148.06889	887.74637	466.71850	-433.58667	912.32703	403.75833	-439.01233	871.73133	91.42963	-413.04882	801.09741	61.89772	-365.42406	964.73182	38.78622	-430.21746	1014.03380	65.84809	-376.74729	941.30050	343.07116	-91.45719	953.29645	476.68879	-115.07866	878.42552	386.35262	-123.76189	821.96680	415.10468	-444.25865	819.92881	294.09697	-447.28313	993.95571	806.30152	-155.86068	1047.95691	709.45069	-130.89266	1007.48225	674.36403	-88.07180	903.05447	774.47914	-98.16135	949.24804	666.97670	-92.50907	959.49931	752.69027	-467.64504	959.67544	612.31295	-456.93825	843.91482	750.00265	-475.31708	851.74589	607.89864	-457.08829	960.03218	927.93257	-173.31446	781.83553	940.69983	-250.76159	973.92294	914.54684	-428.47268	783.61971	936.86958	-357.60557	891.79744	1397.44798	-387.71409	929.29925	1376.59242	-220.91424	957.81734	1297.52241	-525.57913	992.85728	1308.65078	-340.40330	995.27464	1297.13149	-382.57017	896.93463	1166.90617	-85.56871	831.79670	1063.36670	-111.29061	863.22612	1091.81305	-50.64927	927.31586	984.24096	-41.06729	963.38409	870.76190	-37.31686	929.25492	861.97983	-10.32752	996.68461	1165.35322	-548.87958	946.43165	952.39591	-506.35047	973.71651	959.17835	-561.88270	1045.40823	874.71702	-556.33984	1085.23941	757.06350	-531.01159	1054.73592	740.08770	-546.45502	896.99101	850.84349	-198.28971	907.44821	844.61431	-398.20910	903.77345	841.88665	-207.28862	906.59053	835.83618	-376.04377	
92	0.91000000	1053.40649	499.94649	-116.65534	1026.47314	434.61768	-90.94209	844.36882	190.91722	-143.22201	776.93273	191.86919	-197.50782	898.12590	93.11995	-103.79691	956.53670	90.37923	-147.10741	890.49866	467.14154	-433.66772	914.38328	404.05105	-439.34457	871.98568	91.96262	-413.15898	801.35110	62.40324	-365.52531	964.82288	38.67591	-430.31579	1014.29232	65.64006	-376.94718	962.31281	341.00966	-92.57452	967.69962	475.07190	-116.89282	897.66781	380.77405	-125.93627	824.22598	416.08908	-444.04486	821.28618	295.18229	-447.00742	1005.28315	807.86646	-157.00724	1059.98877	711.43562	-132.41943	1020.31316	676.30617	-88.90525	915.01529	775.58300	-98.72116	962.26863	668.50340	-92.88338	967.08484	751.95468	-469.53385	965.01457	611.59146	-458.82553	851.23499	751.21626	-475.71925	856.93072	609.02915	-456.80633	971.34344	928.60216	-174.92373	792.70700	941.07038	-251.85351	984.12485	914.23432	-430.27768	794.13584	937.02224	-358.65282	902.00986	1398.24412	-387.52390	938.11979	1376.13112	-220.51830	969.54963	1299.85352	-525.71309	1002.99164	1309.49505	-340.11411	1005.81380	1298.35673	-382.40520	904.46657	1165.97068	-86.30983	840.26333	1062.17440	-113.46472	870.23192	1090.67292	-52.13494	934.47019	983.41290	-40.98788	971.12581	870.13059	-36.51833	936.10184	860.90935	-11.04610	1009.18795	1167.92962	-549.51338	958.98093	954.47912	-508.83889	986.79552	961.59920	-563.83728	1059.71025	878.00539	-557.21029	1101.55514	761.17036	-530.66237	1071.38333	743.62451	-546.42591	908.09612	851.42277	-199.48544	917.74697	844.47862	-399.42478	914.89075	842.15328	-208.55725	917.14864	835.75176	-377.43191	
